<?xml version="1.0" encoding="utf-8"?>
<!-- Generator: Adobe Illustrator 19.0.0, SVG Export Plug-In . SVG Version: 6.00 Build 0)  -->
<svg version="1.1" id="Layer_1" xmlns="http://www.w3.org/2000/svg" xmlns:xlink="http://www.w3.org/1999/xlink" x="0px" y="0px"
	 height="39px" viewBox="123.8 42.6 436.5 172.3" style="enable-background:new 123.8 42.6 436.5 172.3;" xml:space="preserve">
<style type="text/css">
	.st0{fill:url(#SVGID_1_);}
	.st1{fill:#FFFFFF;}
	.st2{fill:url(#SVGID_2_);}
	.st3{fill:url(#SVGID_3_);}
	.st4{fill:url(#SVGID_4_);}
	.st5{fill:url(#SVGID_5_);}
	.st6{fill:url(#SVGID_6_);}
	.st7{fill:url(#SVGID_7_);}
	.st8{opacity:0.1;fill:#FFFFFF;enable-background:new    ;}
</style>
<g transform="translate(-67.201 -107.94)">
	
		<linearGradient id="SVGID_1_" gradientUnits="userSpaceOnUse" x1="476.441" y1="513.75" x2="476.441" y2="687.49" gradientTransform="matrix(1 0 0 1 -67.201 -363.94)">
		<stop  offset="0" style="stop-color:#FF8635;stop-opacity:0.8014"/>
		<stop  offset="1" style="stop-color:#FF6600"/>
	</linearGradient>
	<path class="st0" d="M232.9,322.8h352.7c23.2,0,41.9-19.3,41.9-43.1v-86.2c0-23.8-18.8-43.1-41.9-43.1H232.9
		c-23.2,0-41.9,19.3-41.9,43.1l0,0v86.2C191,303.6,209.8,322.8,232.9,322.8"/>
	<g transform="matrix(.77326 0 0 .80408 -674.3 -346.48)">
		<path class="st1" d="M1210.9,784c0-13.3-10.7-24-24-24s-24,10.7-24,24c0,13.3,10.7,24,24,24S1210.9,797.2,1210.9,784"/>
		<path class="st1" d="M1279,808h-34c0-45.3-36.7-82-82-82v-34C1227,692,1279,743.9,1279,808z"/>
		<path class="st1" d="M1303,808c0-77.3-62.7-140-140-140v-35c96.7,0,175,78.3,175,175H1303z"/>
	</g>
	<g transform="matrix(-.96167 0 0 1 204.54 43.453)">
		
			<linearGradient id="SVGID_2_" gradientUnits="userSpaceOnUse" x1="-270.0185" y1="67.76" x2="-271.1395" y2="41.78" gradientTransform="matrix(-0.9617 0 0 -1 -299.1906 323.487)">
			<stop  offset="0" style="stop-color:#FFFFFF;stop-opacity:0.5882"/>
			<stop  offset="1" style="stop-color:#FFFFFF;stop-opacity:0"/>
		</linearGradient>
		<path class="st2" d="M-40.5,260.1c-10.3,0-18.8,8.2-19.2,18.4h38.5C-21.7,268.3-30.2,260.1-40.5,260.1z"/>
		
			<linearGradient id="SVGID_3_" gradientUnits="userSpaceOnUse" x1="-208.3576" y1="70.3186" x2="-209.4786" y2="44.3386" gradientTransform="matrix(-0.9617 0 0 -1 -299.1906 323.487)">
			<stop  offset="0" style="stop-color:#FFFFFF;stop-opacity:0.5882"/>
			<stop  offset="1" style="stop-color:#FFFFFF;stop-opacity:0"/>
		</linearGradient>
		<path class="st3" d="M-114.5,260.1c0,6.3,0.6,12.4,1.8,18.3h28.1c-1.7-5.8-2.6-12-2.6-18.3H-114.5L-114.5,260.1z"/>
		
			<linearGradient id="SVGID_4_" gradientUnits="userSpaceOnUse" x1="-158.9596" y1="72.3683" x2="-160.0806" y2="46.3883" gradientTransform="matrix(-0.9617 0 0 -1 -299.1906 323.487)">
			<stop  offset="0" style="stop-color:#FFFFFF;stop-opacity:0.5882"/>
			<stop  offset="1" style="stop-color:#FFFFFF;stop-opacity:0"/>
		</linearGradient>
		<path class="st4" d="M-161.9,260.1c0,6.2,0.4,12.3,1.2,18.3h28.4c-1-6-1.5-12.1-1.5-18.3H-161.9L-161.9,260.1z"/>
	</g>
	<g>
		
			<linearGradient id="SVGID_5_" gradientUnits="userSpaceOnUse" x1="487.9989" y1="301.897" x2="487.9989" y2="44.1" gradientTransform="matrix(1 0 0 -1 -67.201 366.94)">
			<stop  offset="0" style="stop-color:#FFFFFF"/>
			<stop  offset="1" style="stop-color:#FFFFFF;stop-opacity:0"/>
		</linearGradient>
		<path class="st5" d="M384.1,274.5v48.3h16.5v-1.2h12.2c7.9,0,12.8,0.3,14.8,1c0.2,0.1,0.4,0.2,0.6,0.2h20.5
			c-0.8-1.7-1.9-3.3-3.2-4.8c-3.6-4-9-6.5-16.2-7.5c3.6-2.1,6.5-4.4,8.8-6.9s5.4-6.9,9.4-13.2l10-15.9h-19.7l-11.9,17.8
			c-4.2,6.3-7.1,10.3-8.7,12s-3.2,2.8-5,3.4s-4.5,0.9-8.3,0.9h-3.3v-34.1L384.1,274.5L384.1,274.5z"/>
		
			<linearGradient id="SVGID_6_" gradientUnits="userSpaceOnUse" x1="564.8607" y1="301.897" x2="564.8607" y2="44.1" gradientTransform="matrix(1 0 0 -1 -67.201 366.94)">
			<stop  offset="0" style="stop-color:#FFFFFF"/>
			<stop  offset="1" style="stop-color:#FFFFFF;stop-opacity:0"/>
		</linearGradient>
		<path class="st6" d="M498.2,275.8c-10.3,0-18.2,2.4-23.8,7.2c-5.5,4.8-8.8,11.7-9.9,20.9l16,1.6c1-5.4,2.9-9.4,5.9-11.9
			s6.9-3.8,11.9-3.8c5.3,0,9.3,1.1,12,3.4s4.1,4.9,4.1,7.9c0,1.9-0.6,3.6-1.7,4.9c-1.1,1.4-3.1,2.5-5.9,3.5
			c-1.9,0.7-6.3,1.9-13.2,3.6c-8.8,2.2-15,4.9-18.6,8.1c-0.7,0.6-1.3,1.2-1.8,1.8h44.3c0.4-0.2,0.8-0.4,1.2-0.6c3.8-2,6.9-4.8,9-8.3
			c2.2-3.5,3.2-7.8,3.2-13c0-4.7-1.3-9.1-3.9-13.2s-6.3-7.1-11-9.1C511.2,276.8,505.2,275.8,498.2,275.8L498.2,275.8z"/>
		
			<linearGradient id="SVGID_7_" gradientUnits="userSpaceOnUse" x1="641.3207" y1="301.897" x2="641.3207" y2="44.1" gradientTransform="matrix(1 0 0 -1 -67.201 366.94)">
			<stop  offset="0" style="stop-color:#FFFFFF"/>
			<stop  offset="1" style="stop-color:#FFFFFF;stop-opacity:0"/>
		</linearGradient>
		<path class="st7" d="M574.6,275.8c-10.3,0-18.2,2.4-23.8,7.2c-5.5,4.8-8.9,11.7-9.9,20.9l16.1,1.5c1-5.4,2.9-9.3,5.9-11.8
			c3-2.5,6.9-3.8,11.9-3.8c5.3,0,9.3,1.1,12,3.4c2.7,2.2,4,4.9,4,7.9c0,1.9-0.6,3.6-1.7,4.9s-3.1,2.5-5.9,3.5
			c-1.9,0.7-6.3,1.9-13.2,3.6c-8.8,2.2-15.1,4.9-18.6,8.1c-0.6,0.6-1.2,1.2-1.8,1.8H594c0.4-0.2,0.8-0.4,1.1-0.5
			c3.8-2,6.8-4.8,9-8.3c2.2-3.5,3.2-7.8,3.2-13c0-4.7-1.3-9-3.9-13.1s-6.3-7.1-11-9.1C587.6,276.8,581.7,275.8,574.6,275.8
			L574.6,275.8z"/>
	</g>
	<path class="st1" d="M384.5,274.5v-81.6h34.7c8.7,0,15.1,0.7,19,2.2s7.1,4.1,9.5,7.8s3.6,8,3.6,12.9c0,6.1-1.8,11.2-5.4,15.2
		s-9,6.5-16.1,7.5c3.6,2.1,6.5,4.4,8.8,6.8s5.4,6.9,9.4,13.3l10,15.9h-19.7l-11.9-17.8c-4.2-6.3-7.1-10.3-8.7-12s-3.2-2.8-5-3.4
		s-4.5-0.9-8.3-0.9H401v34.1L384.5,274.5L384.5,274.5z M401,227.4h12.2c7.9,0,12.8-0.3,14.8-1s3.5-1.8,4.6-3.5s1.7-3.7,1.7-6.1
		c0-2.7-0.7-5-2.2-6.7s-3.5-2.8-6.2-3.2c-1.3-0.2-5.3-0.3-12-0.3H401L401,227.4L401,227.4z M462.7,247.9l16-1.6
		c1,5.4,2.9,9.3,5.9,11.9c3,2.5,6.9,3.8,11.9,3.8c5.3,0,9.3-1.1,12-3.4c2.7-2.2,4-4.9,4-7.9c0-1.9-0.6-3.6-1.7-4.9s-3.1-2.5-5.9-3.5
		c-1.9-0.7-6.3-1.9-13.2-3.6c-8.8-2.2-15-4.9-18.6-8.1c-5-4.5-7.5-10-7.5-16.4c0-4.2,1.2-8,3.5-11.7s5.8-6.4,10.2-8.3
		s9.8-2.8,16.1-2.8c10.2,0,18,2.2,23.1,6.7c5.2,4.5,7.9,10.5,8.2,18l-16.5,0.7c-0.7-4.2-2.2-7.2-4.5-9s-5.8-2.8-10.4-2.8
		c-4.8,0-8.5,1-11.2,3c-1.7,1.3-2.6,3-2.6,5.1c0,1.9,0.8,3.6,2.5,5c2.1,1.7,7.1,3.6,15.1,5.5s13.9,3.9,17.8,5.9c3.8,2,6.8,4.8,9,8.3
		c2.2,3.5,3.3,7.8,3.3,13c0,4.7-1.3,9.1-3.9,13.1c-2.6,4.1-6.3,7.1-11,9.1c-4.8,2-10.7,3-17.8,3c-10.3,0-18.2-2.4-23.8-7.2
		C467.1,264,463.8,257.1,462.7,247.9L462.7,247.9z M538.9,247.9l16-1.6c1,5.4,2.9,9.3,5.9,11.9c3,2.5,6.9,3.8,11.9,3.8
		c5.3,0,9.3-1.1,12-3.4c2.7-2.2,4-4.9,4-7.9c0-1.9-0.6-3.6-1.7-4.9s-3.1-2.5-5.9-3.5c-1.9-0.7-6.3-1.9-13.2-3.6
		c-8.8-2.2-15-4.9-18.6-8.1c-5-4.5-7.5-10-7.5-16.4c0-4.2,1.2-8,3.5-11.7c2.4-3.6,5.8-6.4,10.2-8.3c4.4-1.9,9.8-2.8,16.1-2.8
		c10.2,0,18,2.2,23.1,6.7c5.2,4.5,7.9,10.5,8.2,18l-16.5,0.7c-0.7-4.2-2.2-7.2-4.5-9c-2.3-1.8-5.8-2.8-10.4-2.8c-4.8,0-8.5,1-11.2,3
		c-1.7,1.3-2.6,3-2.6,5.1c0,1.9,0.8,3.6,2.5,5c2.1,1.7,7.1,3.6,15.1,5.5c8,1.9,13.9,3.9,17.8,5.9c3.8,2,6.8,4.8,9,8.3
		s3.3,7.8,3.3,13c0,4.7-1.3,9.1-3.9,13.1s-6.3,7.1-11,9.1c-4.8,2-10.7,3-17.8,3c-10.3,0-18.2-2.4-23.8-7.2
		C543.2,264,539.9,257.1,538.9,247.9L538.9,247.9z"/>
	<path class="st8" d="M495.2,190.6c-6.3,0-11.6,1-16.1,2.8s-7.8,4.7-10.2,8.3s-3.5,7.5-3.5,11.7c0,2.3,0.3,4.4,0.9,6.4
		c5.1-1,10.7-2.1,16.5-3.3c-1.1-1.2-1.7-2.6-1.7-4.2c0-2.1,0.9-3.8,2.6-5.1c2.7-2,6.5-2.9,11.2-2.9c4.6,0,8.1,0.9,10.4,2.8
		c1.2,1,2.2,2.2,3,3.8c5.7-1.3,11.2-2.5,16.6-3.7c-1.3-3.8-3.6-7.1-6.7-9.8C513.1,192.8,505.4,190.6,495.2,190.6L495.2,190.6z
		 M571.3,190.6c-6.3,0-11.6,1-16.1,2.8s-7.8,4.7-10.2,8.3c-0.3,0.4-0.5,0.9-0.8,1.3c9.9-2,17.6-3.4,21.1-3.4c4,0,12.6-2.5,22.7-6.2
		C583.5,191.5,577.9,190.6,571.3,190.6L571.3,190.6z M392.8,192c4.5,4.3,10,9.2,16.1,13.8h4.8c6.7,0,10.7,0.1,12,0.3
		c2.7,0.4,4.8,1.5,6.2,3.2s2.2,3.9,2.2,6.7c0,1.6-0.2,3-0.7,4.2c5.4,2,10.7,3,15.7,2.4c0.3,0,0.6-0.1,0.9-0.1
		c0.7-2.3,1.1-4.9,1.1-7.6c0-4.8-1.2-9.1-3.6-12.8s-5.5-6.4-9.5-7.8s-10.3-2.2-19-2.2L392.8,192L392.8,192z"/>
</g>
</svg>
